<?xml version="1.0" standalone="no"?><!DOCTYPE svg PUBLIC "-//W3C//DTD SVG 1.1//EN" "http://www.w3.org/Graphics/SVG/1.1/DTD/svg11.dtd"><svg t="1616050489387" class="icon" viewBox="0 0 1024 1024" version="1.1" xmlns="http://www.w3.org/2000/svg" p-id="4228" xmlns:xlink="http://www.w3.org/1999/xlink" width="200" height="200"><defs><style type="text/css"></style></defs><path d="M507.5 72c119.433 0 216.253 96.741 216.253 216.078l-0.001 85.051h43.711C850.05 373.13 917 440.027 917 522.546v285.04C917 890.104 850.05 957 767.463 957H247.537C164.95 957 98 890.104 98 807.584V522.545c0-82.52 66.95-149.415 149.537-149.415l43.71-0.001v-85.051c0-118.143 94.893-214.14 212.677-216.05z m259.963 360.896H247.537c-49.057 0-88.918 39.339-89.71 88.167l-0.012 1.482v285.04c0 49.016 39.37 88.845 88.238 89.637l1.484 0.012h519.926c49.057 0 88.918-39.339 89.71-88.167l0.012-1.483V522.545c0-49.016-39.37-88.845-88.238-89.637l-1.484-0.012z m-259.956 142.52c16.514 0 29.9 13.386 29.9 29.9V766.19c0 16.513-13.386 29.9-29.9 29.9h-0.014c-16.514 0-29.9-13.387-29.9-29.9V605.316c0-16.514 13.386-29.9 29.9-29.9h0.014z m-0.007-443.65c-86.398 0-156.438 69.983-156.438 156.312v82.753h312.876v-82.753c0-85.465-68.646-154.91-153.851-156.29z" fill="#4D9EFA" p-id="4229"></path></svg>